HIERARCHY
ROOT Hips
{
	OFFSET -0.001795 -0.223333 0.028219
	CHANNELS 6 Xposition Yposition Zposition Zrotation Yrotation Xrotation 
	JOINT LeftUpLeg
	{
		OFFSET 0.069520 -0.091406 -0.006815
		CHANNELS 3 Zrotation Yrotation Xrotation
		JOINT LeftLeg
		{
			OFFSET 0.034277 -0.375199 -0.004496
			CHANNELS 3 Zrotation Yrotation Xrotation
			JOINT LeftFoot
			{
				OFFSET -0.013596 -0.397961 -0.043693
				CHANNELS 3 Zrotation Yrotation Xrotation
				JOINT LeftToe
				{
					OFFSET 0.026358 -0.055791 0.119288
					CHANNELS 3 Zrotation Yrotation Xrotation
					End Site
					{
						OFFSET 0.000000 0.000000 0.000000
					}
				}
			}
		}
	}
	JOINT RightUpLeg
	{
		OFFSET -0.067670 -0.090522 -0.004320
		CHANNELS 3 Zrotation Yrotation Xrotation
		JOINT RightLeg
		{
			OFFSET -0.038290 -0.382569 -0.008850
			CHANNELS 3 Zrotation Yrotation Xrotation
			JOINT RightFoot
			{
				OFFSET 0.015774 -0.398415 -0.042312
				CHANNELS 3 Zrotation Yrotation Xrotation
				JOINT RightToe
				{
					OFFSET -0.025372 -0.048144 0.123348
					CHANNELS 3 Zrotation Yrotation Xrotation
					End Site
					{
						OFFSET 0.000000 0.000000 0.000000
					}
				}
			}
		}
	}
	JOINT Spine
	{
		OFFSET -0.002533 0.108963 -0.026696
		CHANNELS 3 Zrotation Yrotation Xrotation
		JOINT Spine1
		{
			OFFSET 0.005487 0.135180 0.001092
			CHANNELS 3 Zrotation Yrotation Xrotation
			JOINT Spine2
			{
				OFFSET 0.001457 0.052922 0.025425
				CHANNELS 3 Zrotation Yrotation Xrotation
				JOINT Neck
				{
					OFFSET -0.002778 0.213870 -0.042857
					CHANNELS 3 Zrotation Yrotation Xrotation
					JOINT Head
					{
						OFFSET 0.005152 0.064970 0.051349
						CHANNELS 3 Zrotation Yrotation Xrotation
						End Site
						{
							OFFSET 0.000000 0.000000 0.000000
						}
					}
				}
				JOINT LeftShoulder
				{
					OFFSET 0.078845 0.121749 -0.034090
					CHANNELS 3 Zrotation Yrotation Xrotation
					JOINT LeftArm
					{
						OFFSET 0.090977 0.030469 -0.008868
						CHANNELS 3 Zrotation Yrotation Xrotation
						JOINT LeftForeArm
						{
							OFFSET 0.259612 -0.012772 -0.027456
							CHANNELS 3 Zrotation Yrotation Xrotation
							JOINT LeftHand
							{
								OFFSET 0.249234 0.008986 -0.001171
								CHANNELS 3 Zrotation Yrotation Xrotation
								End Site
								{
									OFFSET 0.000000 0.000000 0.000000
								}
							}
						}
					}
				}
				JOINT RightShoulder
				{
					OFFSET -0.081759 0.118833 -0.038615
					CHANNELS 3 Zrotation Yrotation Xrotation
					JOINT RightArm
					{
						OFFSET -0.096012 0.032551 -0.009143
						CHANNELS 3 Zrotation Yrotation Xrotation
						JOINT RightForeArm
						{
							OFFSET -0.253742 -0.013329 -0.021401
							CHANNELS 3 Zrotation Yrotation Xrotation
							JOINT RightHand
							{
								OFFSET -0.255298 0.007772 -0.005559
								CHANNELS 3 Zrotation Yrotation Xrotation
								End Site
								{
									OFFSET 0.000000 0.000000 0.000000
								}
							}
						}
					}
				}
			}
		}
	}
}
MOTION
Frames: 6
Frame Time: 0.050000
0.000000 0.951011 0.000000 -1.101827 1.717656 2.979725 4.947686 0.011895 2.782653 -0.517289 0.211149 -5.422686 6.066210 15.035474 16.746972 0.000000 0.000000 0.000000 -2.576660 0.052575 0.221348 3.611892 -0.405721 -1.574145 -8.842037 -20.752333 24.095188 0.000000 0.000000 0.000000 -0.244053 -0.116708 3.073630 3.195424 -0.086546 -24.956192 -1.183350 -0.035969 29.842396 1.794877 1.194618 -33.073538 0.000000 0.000000 0.000000 -26.452784 0.935620 -2.556695 -51.305094 -6.094076 -5.986554 -9.373605 -23.781946 3.184872 0.000000 0.000000 0.000000 18.070519 3.059767 1.031934 57.255115 6.528645 -5.225868 5.720310 24.607256 2.347240 0.000000 0.000000 0.000000 
-0.000076 0.950691 0.001197 -1.348380 1.157951 3.347728 5.288207 -0.004875 2.706845 -0.757357 0.233018 -5.684481 6.390912 15.442081 16.841823 0.000000 0.000000 0.000000 -2.383185 0.111244 -0.515536 3.481029 -0.380978 -0.731286 -8.067354 -19.741462 23.205750 0.000000 0.000000 0.000000 0.127834 -0.108529 2.482538 3.273074 -0.111324 -24.918677 -1.425746 0.293987 29.864878 1.754171 1.217914 -33.126093 0.000000 0.000000 0.000000 -26.904355 2.176162 -3.398297 -50.915960 -5.880032 -6.028372 -10.291171 -24.377311 3.482717 0.000000 0.000000 0.000000 17.139211 2.758823 0.877017 58.939101 5.289821 -5.904135 5.040044 26.515196 2.448714 0.000000 0.000000 0.000000 
-0.000106 0.950536 0.002171 -1.045254 1.109995 3.448826 5.011917 -0.003465 2.448682 -0.863504 0.229286 -5.292248 6.421962 15.477752 16.807560 0.000000 0.000000 0.000000 -2.727703 0.114789 -0.443281 3.318898 -0.368816 -1.215075 -7.997981 -19.648541 23.943793 0.000000 0.000000 0.000000 0.452291 -0.111433 2.258341 2.308368 0.108006 -24.828236 -1.266134 -0.497780 29.899294 1.316777 1.297695 -33.227195 0.000000 0.000000 0.000000 -26.558461 1.765156 -2.781092 -51.018949 -5.864644 -6.128507 -9.809787 -24.440000 3.423693 0.000000 0.000000 0.000000 17.853646 3.065728 0.813613 58.249707 4.728449 -6.118002 5.057129 26.728081 2.421695 0.000000 0.000000 0.000000 
-0.000182 0.950545 0.003225 -0.952810 1.141483 3.245646 4.904679 0.017543 2.751386 -0.831335 0.228067 -5.319305 6.379634 15.422664 16.811476 0.000000 0.000000 0.000000 -2.890418 0.100239 -0.221053 3.442198 -0.380097 -1.077627 -8.010005 -19.661797 23.906155 0.000000 0.000000 0.000000 0.247257 -0.110699 2.433694 2.779609 0.024148 -25.383826 -1.562227 -0.729773 30.091424 1.617992 1.137074 -33.613439 0.000000 0.000000 0.000000 -27.397275 2.563028 -3.320165 -50.255785 -5.350522 -6.278970 -10.608611 -24.722576 3.653732 0.000000 0.000000 0.000000 17.679097 2.946975 0.707231 58.047579 4.382675 -6.283354 5.761775 27.169688 2.619350 0.000000 0.000000 0.000000 
-0.000320 0.951007 0.004070 -0.862555 1.331998 3.046979 4.893716 0.022801 2.857344 -0.920959 0.227265 -5.088741 6.243231 15.256461 16.854355 0.000000 0.000000 0.000000 -3.031218 0.076948 0.105187 3.569962 -0.394966 -1.132289 -8.064909 -19.714309 24.096168 0.000000 0.000000 0.000000 0.172321 -0.117569 2.668160 3.104973 -0.071197 -24.952281 -1.846490 -0.856325 29.400375 1.464236 1.173577 -32.871695 0.000000 0.000000 0.000000 -27.193335 2.654241 -3.389021 -50.345322 -4.901790 -6.389791 -11.358256 -25.245036 3.898510 0.000000 0.000000 0.000000 17.759771 2.465196 0.419123 57.826375 4.043142 -6.342622 6.500920 27.244765 2.783212 0.000000 0.000000 0.000000 
-0.000385 0.951576 0.004630 -0.799337 1.428101 3.026743 4.842458 0.024805 2.869951 -0.922399 0.225983 -5.044009 6.153541 15.156000 17.002011 0.000000 0.000000 0.000000 -3.181672 0.063770 0.332160 3.736002 -0.411695 -1.079161 -7.733672 -19.228880 23.358459 0.000000 0.000000 0.000000 -0.007947 -0.106649 2.587386 3.219159 -0.082516 -25.231885 -1.850041 -1.185683 29.558459 1.630984 1.050398 -32.984215 0.000000 0.000000 0.000000 -27.135166 2.854958 -3.407808 -50.372522 -4.486982 -6.598140 -11.769256 -25.844640 4.115724 0.000000 0.000000 0.000000 17.493276 2.474600 0.375176 57.910859 3.868873 -6.447777 6.379339 27.442315 2.768351 0.000000 0.000000 0.000000 
